<mxfile host="app.diagrams.net" modified="2024-03-27T14:23:49.286Z" agent="Mozilla/5.0 (Windows NT 10.0; Win64; x64) AppleWebKit/537.36 (KHTML, like Gecko) Chrome/122.0.0.0 Safari/537.36" version="23.1.4" etag="CXt9q_wYvznSjT2qTCCC" type="github">
  <diagram name="Pagina-1" id="cRGAj2P6WkTWB7xWuhiN">
    <mxGraphModel>
      <root>
        <mxCell id="0" />
        <mxCell id="1" parent="0" />
      </root>
    </mxGraphModel>
  </diagram>
</mxfile>
